<svg id="Calque_1" data-name="Calque 1" xmlns="http://www.w3.org/2000/svg" viewBox="0 0 141.5 291.5"><defs><style>.cls-1,.cls-2{stroke:#000;stroke-linejoin:round;stroke-width:5px;}.cls-2{fill:#fff;}.cls-3{fill:#9e9e9e;}</style></defs><title>Robot</title><rect class="cls-1" x="43.5" y="66" width="33.59" height="24.5"/><rect class="cls-1" x="43.2" y="110" width="33.59" height="24.5"/><path class="cls-2" d="M99.5,6l-37,31L60,125.5s1,19,19.75,19.5S99.5,122.5,99.5,122.5L103,35Z"/><path class="cls-3" d="M73.78,285.33c-14.59,0-30.68-5.53-50.62-17.39C13,261.88,7.09,253.39,5.67,242.71c-3.4-25.54,21.16-55.33,29.92-65L31,56.78A7.51,7.51,0,0,1,38.22,49h.33A7.46,7.46,0,0,1,46,56.21l4.7,124a7.53,7.53,0,0,1-2.11,5.5c-.31.32-31.06,32.47-28.05,55,.8,6,4.17,10.67,10.3,14.32,17.52,10.42,31.18,15.28,43,15.28a42.37,42.37,0,0,0,5.72-.39c14.93-2,28.54-12.45,42.82-32.76a7.5,7.5,0,0,1,12.27,8.63c-16.61,23.62-34,36.38-53.05,39a57.75,57.75,0,0,1-7.79.53Z"/><path d="M38.54,51.5a5,5,0,0,1,5,4.81l4.7,124A5,5,0,0,1,46.79,184c-.32.33-31.91,33.3-28.73,57.09.91,6.79,4.67,12.07,11.5,16.14,17.91,10.66,31.88,15.63,44.27,15.63a44.58,44.58,0,0,0,6.06-.41c15.67-2.14,29.82-12.88,44.53-33.8a5,5,0,1,1,8.18,5.75c-16.19,23-33,35.44-51.35,38a55,55,0,0,1-7.45.5h0c-14.25,0-29.82-5.43-49.34-17-9.5-5.65-15-13.53-16.3-23.42-3.4-25.53,23.23-56.41,30-63.77L33.5,56.69a5,5,0,0,1,4.81-5.19h.23m0-5h-.46a10,10,0,0,0-9.57,10.37l4.55,119.88C23.57,187.4-.26,217.09,3.19,243c1.53,11.48,7.82,20.59,18.7,27.06,20.34,12.1,36.83,17.74,51.9,17.74a60.3,60.3,0,0,0,8.13-.55c19.81-2.71,37.73-15.81,54.76-40a10,10,0,1,0-16.36-11.5c-13.85,19.7-26.92,29.78-41.11,31.72a39.83,39.83,0,0,1-5.38.36c-11.34,0-24.6-4.74-41.71-14.92-5.5-3.27-8.39-7.25-9.1-12.5-2.36-17.67,19-44.22,27.38-53a10,10,0,0,0,2.8-7.33l-4.7-124a10,10,0,0,0-10-9.62Z"/></svg>