<svg id="Calque_1" data-name="Calque 1" xmlns="http://www.w3.org/2000/svg" viewBox="0 0 178.5 351.5"><defs><style>.cls-1,.cls-4{fill:#fff;}.cls-2,.cls-3{fill:#9e9e9e;}.cls-3,.cls-4{stroke:#000;stroke-linejoin:round;stroke-width:5px;}</style></defs><title>Robot</title><path class="cls-1" d="M53,309a2.5,2.5,0,0,1-2.36-1.68l-45.5-131a2.5,2.5,0,0,1-.06-1.44l35-136a2.5,2.5,0,0,1,1.49-1.7l82.5-33A2.5,2.5,0,0,1,127.5,6.5v251a2.5,2.5,0,0,1-1.09,2.07l-72,49A2.5,2.5,0,0,1,53,309Z"/><path d="M125,6.5v251l-72,49L7.5,175.5l35-136L125,6.5m0-5a5,5,0,0,0-1.86.36l-82.5,33a5,5,0,0,0-3,3.4l-35,136a5,5,0,0,0,.12,2.89l45.5,131a5,5,0,0,0,7.54,2.49l72-49A5,5,0,0,0,130,257.5V6.5a5,5,0,0,0-5-5Z"/><path class="cls-2" d="M90.85,345.75A43.75,43.75,0,1,1,134.6,302,43.8,43.8,0,0,1,90.85,345.75Z"/><path d="M90.85,260.75A41.25,41.25,0,1,1,49.6,302a41.25,41.25,0,0,1,41.25-41.25m0-5A46.25,46.25,0,1,0,137.1,302a46.3,46.3,0,0,0-46.25-46.25Z"/><polygon class="cls-3" points="107.83 32.4 54.33 52.39 24.88 160.22 104.76 128.48 107.83 32.4"/><path class="cls-3" d="M26.69,180.47l95.08-36.53L115.15,245.1c-18.95-1.6-39.33-.76-63.23,15.9Z"/><circle class="cls-4" cx="75" cy="102.34" r="27.66"/><circle class="cls-4" cx="90.85" cy="302" r="34.15"/><path class="cls-1" d="M140.44,288c-21.32-.52-65.42-48.76-67.29-50.82a2.5,2.5,0,0,1,.56-3.82c36.22-21.93,29.38-91.9,29.31-92.6a2.5,2.5,0,0,1,.86-2.16c26.34-22.58,11-62.28,10.8-62.68a2.5,2.5,0,0,1-.13-1.38l4.5-24a2.5,2.5,0,0,1,3.66-1.73l46.5,25.5a2.5,2.5,0,0,1,1.18,1.44c.46,1.46,11,36.53-12.19,97.16C137,228.25,142.92,284.66,143,285.23A2.5,2.5,0,0,1,140.5,288Z"/><path d="M121.5,51,168,76.5s11,35-12.14,95.51C134.21,228.62,140.5,285.5,140.5,285.5c-20.5-.5-65.5-50-65.5-50,38-23,30.5-95,30.5-95C133.5,116.5,117,75,117,75l4.5-24m0-5a5,5,0,0,0-4.91,4.08l-4.5,24a5,5,0,0,0,.27,2.77,77.36,77.36,0,0,1,4.41,22.41c.68,16-4.2,28.6-14.52,37.44a5,5,0,0,0-1.72,4.31c.07.69,6.71,69.13-28.12,90.2a5,5,0,0,0-1.11,7.64c.47.51,11.58,12.7,25.42,25.16,19.51,17.57,33.8,26.23,43.66,26.47h.12a5,5,0,0,0,5-5.55c-.06-.56-5.87-56.41,15.06-111.15C184,112.37,173.24,76.5,172.77,75a5,5,0,0,0-2.37-2.88l-46.5-25.5a5,5,0,0,0-2.4-.62Z"/></svg>